<svg width="120" height="27" viewBox="0 0 120 27" fill="none" xmlns="http://www.w3.org/2000/svg">
<path d="M20.8894 19.448C18.8014 20.888 15.5974 21.716 12.6454 21.716C8.28938 21.716 6.41738 20.42 6.41738 18.512C6.41738 16.568 8.10938 15.56 10.9894 15.56H18.2254V10.952H11.3494C8.72138 10.952 7.49738 9.944 7.49738 8.216C7.49738 6.38 9.26138 5.084 13.1494 5.084C15.5254 5.084 17.8654 5.552 20.1694 6.632L21.7894 2.168C19.4854 1.052 16.2454 0.368 12.9334 0.368C5.19338 0.368 1.59338 3.86 1.59338 7.82C1.59338 10.088 2.70938 11.996 4.68938 13.04C2.16938 14.048 0.513375 16.172 0.513375 18.908C0.513375 23.264 4.58138 26.432 12.3934 26.432C16.4614 26.432 20.2774 25.46 22.6894 23.84L20.8894 19.448Z" fill="#5558DB"/>
<path d="M25.3531 15.488H35.5411V10.988H25.3531V15.488ZM52.7941 26.432C57.1861 26.432 60.8221 24.848 63.1981 21.932L59.4541 18.476C57.7621 20.456 55.6381 21.464 53.1181 21.464C48.4021 21.464 45.0541 18.152 45.0541 13.4C45.0541 8.648 48.4021 5.336 53.1181 5.336C55.6381 5.336 57.7621 6.344 59.4541 8.288L63.1981 4.832C60.8221 1.952 57.1861 0.368 52.8301 0.368C44.9821 0.368 39.1501 5.804 39.1501 13.4C39.1501 20.996 44.9821 26.432 52.7941 26.432ZM79.3404 26.432C87.2604 26.432 93.1284 20.924 93.1284 13.4C93.1284 5.876 87.2604 0.368 79.3404 0.368C71.3844 0.368 65.5524 5.912 65.5524 13.4C65.5524 20.888 71.3844 26.432 79.3404 26.432ZM79.3404 21.464C74.8404 21.464 71.4564 18.188 71.4564 13.4C71.4564 8.612 74.8404 5.336 79.3404 5.336C83.8404 5.336 87.2244 8.612 87.2244 13.4C87.2244 18.188 83.8404 21.464 79.3404 21.464ZM108.419 0.799998H97.5114V26H103.343V19.052H108.419C115.151 19.052 119.363 15.56 119.363 9.944C119.363 4.292 115.151 0.799998 108.419 0.799998ZM108.095 14.3H103.343V5.552H108.095C111.659 5.552 113.459 7.172 113.459 9.944C113.459 12.68 111.659 14.3 108.095 14.3Z" fill="#0B162B"/>
</svg>
